<mxfile host="app.diagrams.net" modified="2023-08-28T06:18:31.026Z" agent="Mozilla/5.0 (Macintosh; Intel Mac OS X 10_15_7) AppleWebKit/537.36 (KHTML, like Gecko) Chrome/115.0.0.0 Safari/537.36" etag="yJtfCdm_QwGRQgFRCkFh" version="21.5.2" type="github">
  <diagram name="Page-1" id="1o-rZqY8yZ8scTz8J_77">
    <mxGraphModel dx="1194" dy="525" grid="1" gridSize="10" guides="1" tooltips="1" connect="1" arrows="1" fold="1" page="1" pageScale="1" pageWidth="827" pageHeight="1169" math="0" shadow="0">
      <root>
        <mxCell id="0" />
        <mxCell id="1" parent="0" />
        <mxCell id="r2xh9OsiHyZNfZ7-bNdu-5" style="edgeStyle=orthogonalEdgeStyle;rounded=0;orthogonalLoop=1;jettySize=auto;html=1;exitX=0.5;exitY=1;exitDx=0;exitDy=0;entryX=0.5;entryY=0;entryDx=0;entryDy=0;" parent="1" source="r2xh9OsiHyZNfZ7-bNdu-1" target="r2xh9OsiHyZNfZ7-bNdu-4" edge="1">
          <mxGeometry relative="1" as="geometry" />
        </mxCell>
        <mxCell id="r2xh9OsiHyZNfZ7-bNdu-1" value="开始" style="ellipse;whiteSpace=wrap;html=1;" parent="1" vertex="1">
          <mxGeometry x="100" y="60" width="120" height="50" as="geometry" />
        </mxCell>
        <mxCell id="r2xh9OsiHyZNfZ7-bNdu-3" value="&lt;font style=&quot;font-size: 14px;&quot;&gt;二层&lt;/font&gt;" style="text;html=1;align=center;verticalAlign=middle;resizable=0;points=[];autosize=1;strokeColor=none;fillColor=none;shadow=1;" parent="1" vertex="1">
          <mxGeometry x="24.5" y="8" width="50" height="30" as="geometry" />
        </mxCell>
        <mxCell id="r2xh9OsiHyZNfZ7-bNdu-8" style="edgeStyle=orthogonalEdgeStyle;rounded=0;orthogonalLoop=1;jettySize=auto;html=1;exitX=1;exitY=0.5;exitDx=0;exitDy=0;entryX=0;entryY=0.5;entryDx=0;entryDy=0;" parent="1" source="r2xh9OsiHyZNfZ7-bNdu-4" target="r2xh9OsiHyZNfZ7-bNdu-7" edge="1">
          <mxGeometry relative="1" as="geometry" />
        </mxCell>
        <mxCell id="r2xh9OsiHyZNfZ7-bNdu-11" style="edgeStyle=orthogonalEdgeStyle;rounded=0;orthogonalLoop=1;jettySize=auto;html=1;exitX=0.5;exitY=1;exitDx=0;exitDy=0;entryX=0.5;entryY=0;entryDx=0;entryDy=0;" parent="1" source="r2xh9OsiHyZNfZ7-bNdu-4" target="r2xh9OsiHyZNfZ7-bNdu-10" edge="1">
          <mxGeometry relative="1" as="geometry" />
        </mxCell>
        <mxCell id="r2xh9OsiHyZNfZ7-bNdu-4" value="CREATE_PENDING" style="rounded=0;whiteSpace=wrap;html=1;" parent="1" vertex="1">
          <mxGeometry x="100" y="160" width="120" height="60" as="geometry" />
        </mxCell>
        <mxCell id="r2xh9OsiHyZNfZ7-bNdu-6" value="创建" style="text;strokeColor=none;align=center;fillColor=none;html=1;verticalAlign=middle;whiteSpace=wrap;rounded=0;" parent="1" vertex="1">
          <mxGeometry x="170" y="120" width="60" height="30" as="geometry" />
        </mxCell>
        <mxCell id="r2xh9OsiHyZNfZ7-bNdu-82" style="edgeStyle=orthogonalEdgeStyle;rounded=0;orthogonalLoop=1;jettySize=auto;html=1;exitX=0.5;exitY=1;exitDx=0;exitDy=0;entryX=1;entryY=0.5;entryDx=0;entryDy=0;" parent="1" source="r2xh9OsiHyZNfZ7-bNdu-7" target="r2xh9OsiHyZNfZ7-bNdu-79" edge="1">
          <mxGeometry relative="1" as="geometry" />
        </mxCell>
        <mxCell id="r2xh9OsiHyZNfZ7-bNdu-7" value="CREATE_FAILED&lt;br&gt;进行配置回滚" style="rounded=0;whiteSpace=wrap;html=1;" parent="1" vertex="1">
          <mxGeometry x="270" y="160" width="120" height="60" as="geometry" />
        </mxCell>
        <mxCell id="r2xh9OsiHyZNfZ7-bNdu-9" value="失败" style="text;strokeColor=none;align=center;fillColor=none;html=1;verticalAlign=middle;whiteSpace=wrap;rounded=0;" parent="1" vertex="1">
          <mxGeometry x="210" y="160" width="60" height="30" as="geometry" />
        </mxCell>
        <mxCell id="r2xh9OsiHyZNfZ7-bNdu-81" style="edgeStyle=orthogonalEdgeStyle;rounded=0;orthogonalLoop=1;jettySize=auto;html=1;exitX=0.5;exitY=1;exitDx=0;exitDy=0;entryX=0.5;entryY=0;entryDx=0;entryDy=0;" parent="1" source="r2xh9OsiHyZNfZ7-bNdu-10" target="r2xh9OsiHyZNfZ7-bNdu-79" edge="1">
          <mxGeometry relative="1" as="geometry" />
        </mxCell>
        <mxCell id="r2xh9OsiHyZNfZ7-bNdu-10" value="NORMAL" style="rounded=0;whiteSpace=wrap;html=1;" parent="1" vertex="1">
          <mxGeometry x="100" y="270" width="120" height="60" as="geometry" />
        </mxCell>
        <mxCell id="r2xh9OsiHyZNfZ7-bNdu-12" value="成功" style="text;strokeColor=none;align=center;fillColor=none;html=1;verticalAlign=middle;whiteSpace=wrap;rounded=0;" parent="1" vertex="1">
          <mxGeometry x="170" y="230" width="60" height="30" as="geometry" />
        </mxCell>
        <mxCell id="r2xh9OsiHyZNfZ7-bNdu-13" value="创建" style="text;html=1;align=center;verticalAlign=middle;resizable=0;points=[];autosize=1;strokeColor=none;fillColor=none;" parent="1" vertex="1">
          <mxGeometry x="25" y="60" width="50" height="30" as="geometry" />
        </mxCell>
        <mxCell id="r2xh9OsiHyZNfZ7-bNdu-14" style="edgeStyle=orthogonalEdgeStyle;rounded=0;orthogonalLoop=1;jettySize=auto;html=1;exitX=0.5;exitY=1;exitDx=0;exitDy=0;entryX=0.5;entryY=0;entryDx=0;entryDy=0;" parent="1" source="r2xh9OsiHyZNfZ7-bNdu-15" target="r2xh9OsiHyZNfZ7-bNdu-18" edge="1">
          <mxGeometry relative="1" as="geometry" />
        </mxCell>
        <mxCell id="r2xh9OsiHyZNfZ7-bNdu-15" value="开始" style="ellipse;whiteSpace=wrap;html=1;" parent="1" vertex="1">
          <mxGeometry x="489" y="60" width="120" height="50" as="geometry" />
        </mxCell>
        <mxCell id="r2xh9OsiHyZNfZ7-bNdu-16" style="edgeStyle=orthogonalEdgeStyle;rounded=0;orthogonalLoop=1;jettySize=auto;html=1;exitX=1;exitY=0.5;exitDx=0;exitDy=0;entryX=0;entryY=0.5;entryDx=0;entryDy=0;" parent="1" source="r2xh9OsiHyZNfZ7-bNdu-18" target="r2xh9OsiHyZNfZ7-bNdu-20" edge="1">
          <mxGeometry relative="1" as="geometry" />
        </mxCell>
        <mxCell id="r2xh9OsiHyZNfZ7-bNdu-17" style="edgeStyle=orthogonalEdgeStyle;rounded=0;orthogonalLoop=1;jettySize=auto;html=1;exitX=0.5;exitY=1;exitDx=0;exitDy=0;entryX=0.5;entryY=0;entryDx=0;entryDy=0;" parent="1" source="r2xh9OsiHyZNfZ7-bNdu-18" target="r2xh9OsiHyZNfZ7-bNdu-22" edge="1">
          <mxGeometry relative="1" as="geometry" />
        </mxCell>
        <mxCell id="r2xh9OsiHyZNfZ7-bNdu-18" value="UPDATE_PENDING" style="rounded=0;whiteSpace=wrap;html=1;" parent="1" vertex="1">
          <mxGeometry x="489" y="160" width="120" height="60" as="geometry" />
        </mxCell>
        <mxCell id="r2xh9OsiHyZNfZ7-bNdu-19" value="修改" style="text;strokeColor=none;align=center;fillColor=none;html=1;verticalAlign=middle;whiteSpace=wrap;rounded=0;" parent="1" vertex="1">
          <mxGeometry x="559" y="120" width="60" height="30" as="geometry" />
        </mxCell>
        <mxCell id="r2xh9OsiHyZNfZ7-bNdu-59" style="edgeStyle=orthogonalEdgeStyle;rounded=0;orthogonalLoop=1;jettySize=auto;html=1;exitX=0.5;exitY=1;exitDx=0;exitDy=0;entryX=1;entryY=0.5;entryDx=0;entryDy=0;" parent="1" source="r2xh9OsiHyZNfZ7-bNdu-20" target="r2xh9OsiHyZNfZ7-bNdu-22" edge="1">
          <mxGeometry relative="1" as="geometry" />
        </mxCell>
        <mxCell id="r2xh9OsiHyZNfZ7-bNdu-69" style="edgeStyle=orthogonalEdgeStyle;rounded=0;orthogonalLoop=1;jettySize=auto;html=1;exitX=1;exitY=0.5;exitDx=0;exitDy=0;" parent="1" source="r2xh9OsiHyZNfZ7-bNdu-20" edge="1">
          <mxGeometry relative="1" as="geometry">
            <mxPoint x="720" y="150" as="targetPoint" />
            <Array as="points">
              <mxPoint x="799" y="190" />
              <mxPoint x="799" y="120" />
              <mxPoint x="721" y="120" />
            </Array>
          </mxGeometry>
        </mxCell>
        <mxCell id="r2xh9OsiHyZNfZ7-bNdu-20" value="重试" style="rounded=0;whiteSpace=wrap;html=1;" parent="1" vertex="1">
          <mxGeometry x="659" y="160" width="120" height="60" as="geometry" />
        </mxCell>
        <mxCell id="r2xh9OsiHyZNfZ7-bNdu-21" value="失败" style="text;strokeColor=none;align=center;fillColor=none;html=1;verticalAlign=middle;whiteSpace=wrap;rounded=0;" parent="1" vertex="1">
          <mxGeometry x="599" y="160" width="60" height="30" as="geometry" />
        </mxCell>
        <mxCell id="r2xh9OsiHyZNfZ7-bNdu-83" style="edgeStyle=orthogonalEdgeStyle;rounded=0;orthogonalLoop=1;jettySize=auto;html=1;exitX=0.5;exitY=1;exitDx=0;exitDy=0;entryX=0.5;entryY=0;entryDx=0;entryDy=0;" parent="1" source="r2xh9OsiHyZNfZ7-bNdu-22" target="r2xh9OsiHyZNfZ7-bNdu-80" edge="1">
          <mxGeometry relative="1" as="geometry" />
        </mxCell>
        <mxCell id="r2xh9OsiHyZNfZ7-bNdu-22" value="NORMAL" style="rounded=0;whiteSpace=wrap;html=1;" parent="1" vertex="1">
          <mxGeometry x="489" y="270" width="120" height="60" as="geometry" />
        </mxCell>
        <mxCell id="r2xh9OsiHyZNfZ7-bNdu-23" value="成功" style="text;strokeColor=none;align=center;fillColor=none;html=1;verticalAlign=middle;whiteSpace=wrap;rounded=0;" parent="1" vertex="1">
          <mxGeometry x="559" y="230" width="60" height="30" as="geometry" />
        </mxCell>
        <mxCell id="r2xh9OsiHyZNfZ7-bNdu-24" value="修改" style="text;html=1;align=center;verticalAlign=middle;resizable=0;points=[];autosize=1;strokeColor=none;fillColor=none;" parent="1" vertex="1">
          <mxGeometry x="414" y="60" width="50" height="30" as="geometry" />
        </mxCell>
        <mxCell id="r2xh9OsiHyZNfZ7-bNdu-25" style="edgeStyle=orthogonalEdgeStyle;rounded=0;orthogonalLoop=1;jettySize=auto;html=1;exitX=0.5;exitY=1;exitDx=0;exitDy=0;entryX=0.5;entryY=0;entryDx=0;entryDy=0;" parent="1" source="r2xh9OsiHyZNfZ7-bNdu-26" target="r2xh9OsiHyZNfZ7-bNdu-29" edge="1">
          <mxGeometry relative="1" as="geometry" />
        </mxCell>
        <mxCell id="r2xh9OsiHyZNfZ7-bNdu-26" value="开始" style="ellipse;whiteSpace=wrap;html=1;" parent="1" vertex="1">
          <mxGeometry x="100" y="442" width="120" height="50" as="geometry" />
        </mxCell>
        <mxCell id="r2xh9OsiHyZNfZ7-bNdu-27" style="edgeStyle=orthogonalEdgeStyle;rounded=0;orthogonalLoop=1;jettySize=auto;html=1;exitX=1;exitY=0.5;exitDx=0;exitDy=0;entryX=0;entryY=0.5;entryDx=0;entryDy=0;" parent="1" source="r2xh9OsiHyZNfZ7-bNdu-29" target="r2xh9OsiHyZNfZ7-bNdu-31" edge="1">
          <mxGeometry relative="1" as="geometry" />
        </mxCell>
        <mxCell id="r2xh9OsiHyZNfZ7-bNdu-28" style="edgeStyle=orthogonalEdgeStyle;rounded=0;orthogonalLoop=1;jettySize=auto;html=1;exitX=0.5;exitY=1;exitDx=0;exitDy=0;entryX=0.5;entryY=0;entryDx=0;entryDy=0;" parent="1" source="r2xh9OsiHyZNfZ7-bNdu-29" target="r2xh9OsiHyZNfZ7-bNdu-33" edge="1">
          <mxGeometry relative="1" as="geometry" />
        </mxCell>
        <mxCell id="r2xh9OsiHyZNfZ7-bNdu-29" value="PAUSE_PENDING" style="rounded=0;whiteSpace=wrap;html=1;" parent="1" vertex="1">
          <mxGeometry x="100" y="542" width="120" height="60" as="geometry" />
        </mxCell>
        <mxCell id="r2xh9OsiHyZNfZ7-bNdu-30" value="暂停" style="text;strokeColor=none;align=center;fillColor=none;html=1;verticalAlign=middle;whiteSpace=wrap;rounded=0;" parent="1" vertex="1">
          <mxGeometry x="170" y="502" width="60" height="30" as="geometry" />
        </mxCell>
        <mxCell id="r2xh9OsiHyZNfZ7-bNdu-63" style="edgeStyle=orthogonalEdgeStyle;rounded=0;orthogonalLoop=1;jettySize=auto;html=1;exitX=0.5;exitY=1;exitDx=0;exitDy=0;entryX=1;entryY=0.5;entryDx=0;entryDy=0;" parent="1" source="r2xh9OsiHyZNfZ7-bNdu-31" target="r2xh9OsiHyZNfZ7-bNdu-33" edge="1">
          <mxGeometry relative="1" as="geometry" />
        </mxCell>
        <mxCell id="r2xh9OsiHyZNfZ7-bNdu-75" style="edgeStyle=orthogonalEdgeStyle;rounded=0;orthogonalLoop=1;jettySize=auto;html=1;exitX=1;exitY=0.5;exitDx=0;exitDy=0;entryX=0.571;entryY=-0.05;entryDx=0;entryDy=0;entryPerimeter=0;" parent="1" source="r2xh9OsiHyZNfZ7-bNdu-31" target="r2xh9OsiHyZNfZ7-bNdu-31" edge="1">
          <mxGeometry relative="1" as="geometry">
            <mxPoint x="337.5" y="532" as="targetPoint" />
            <Array as="points">
              <mxPoint x="410.5" y="572" />
              <mxPoint x="410.5" y="502" />
              <mxPoint x="338.5" y="502" />
            </Array>
          </mxGeometry>
        </mxCell>
        <mxCell id="r2xh9OsiHyZNfZ7-bNdu-31" value="重试" style="rounded=0;whiteSpace=wrap;html=1;" parent="1" vertex="1">
          <mxGeometry x="270" y="542" width="120" height="60" as="geometry" />
        </mxCell>
        <mxCell id="r2xh9OsiHyZNfZ7-bNdu-32" value="失败" style="text;strokeColor=none;align=center;fillColor=none;html=1;verticalAlign=middle;whiteSpace=wrap;rounded=0;" parent="1" vertex="1">
          <mxGeometry x="210" y="542" width="60" height="30" as="geometry" />
        </mxCell>
        <mxCell id="r2xh9OsiHyZNfZ7-bNdu-86" style="edgeStyle=orthogonalEdgeStyle;rounded=0;orthogonalLoop=1;jettySize=auto;html=1;exitX=0.5;exitY=1;exitDx=0;exitDy=0;entryX=0.5;entryY=0;entryDx=0;entryDy=0;" parent="1" source="r2xh9OsiHyZNfZ7-bNdu-33" target="r2xh9OsiHyZNfZ7-bNdu-84" edge="1">
          <mxGeometry relative="1" as="geometry" />
        </mxCell>
        <mxCell id="r2xh9OsiHyZNfZ7-bNdu-33" value="PAUSED" style="rounded=0;whiteSpace=wrap;html=1;" parent="1" vertex="1">
          <mxGeometry x="100" y="652" width="120" height="60" as="geometry" />
        </mxCell>
        <mxCell id="r2xh9OsiHyZNfZ7-bNdu-34" value="成功" style="text;strokeColor=none;align=center;fillColor=none;html=1;verticalAlign=middle;whiteSpace=wrap;rounded=0;" parent="1" vertex="1">
          <mxGeometry x="170" y="612" width="60" height="30" as="geometry" />
        </mxCell>
        <mxCell id="r2xh9OsiHyZNfZ7-bNdu-35" value="暂停" style="text;html=1;align=center;verticalAlign=middle;resizable=0;points=[];autosize=1;strokeColor=none;fillColor=none;" parent="1" vertex="1">
          <mxGeometry x="25" y="442" width="50" height="30" as="geometry" />
        </mxCell>
        <mxCell id="r2xh9OsiHyZNfZ7-bNdu-36" style="edgeStyle=orthogonalEdgeStyle;rounded=0;orthogonalLoop=1;jettySize=auto;html=1;exitX=0.5;exitY=1;exitDx=0;exitDy=0;entryX=0.5;entryY=0;entryDx=0;entryDy=0;" parent="1" source="r2xh9OsiHyZNfZ7-bNdu-37" target="r2xh9OsiHyZNfZ7-bNdu-40" edge="1">
          <mxGeometry relative="1" as="geometry" />
        </mxCell>
        <mxCell id="r2xh9OsiHyZNfZ7-bNdu-37" value="开始" style="ellipse;whiteSpace=wrap;html=1;" parent="1" vertex="1">
          <mxGeometry x="496.5" y="437" width="120" height="50" as="geometry" />
        </mxCell>
        <mxCell id="r2xh9OsiHyZNfZ7-bNdu-38" style="edgeStyle=orthogonalEdgeStyle;rounded=0;orthogonalLoop=1;jettySize=auto;html=1;exitX=1;exitY=0.5;exitDx=0;exitDy=0;entryX=0;entryY=0.5;entryDx=0;entryDy=0;" parent="1" source="r2xh9OsiHyZNfZ7-bNdu-40" target="r2xh9OsiHyZNfZ7-bNdu-42" edge="1">
          <mxGeometry relative="1" as="geometry" />
        </mxCell>
        <mxCell id="r2xh9OsiHyZNfZ7-bNdu-39" style="edgeStyle=orthogonalEdgeStyle;rounded=0;orthogonalLoop=1;jettySize=auto;html=1;exitX=0.5;exitY=1;exitDx=0;exitDy=0;entryX=0.5;entryY=0;entryDx=0;entryDy=0;" parent="1" source="r2xh9OsiHyZNfZ7-bNdu-40" target="r2xh9OsiHyZNfZ7-bNdu-44" edge="1">
          <mxGeometry relative="1" as="geometry" />
        </mxCell>
        <mxCell id="r2xh9OsiHyZNfZ7-bNdu-40" value="DELETE_PENDING" style="rounded=0;whiteSpace=wrap;html=1;" parent="1" vertex="1">
          <mxGeometry x="496.5" y="537" width="120" height="60" as="geometry" />
        </mxCell>
        <mxCell id="r2xh9OsiHyZNfZ7-bNdu-41" value="删除" style="text;strokeColor=none;align=center;fillColor=none;html=1;verticalAlign=middle;whiteSpace=wrap;rounded=0;" parent="1" vertex="1">
          <mxGeometry x="566.5" y="497" width="60" height="30" as="geometry" />
        </mxCell>
        <mxCell id="r2xh9OsiHyZNfZ7-bNdu-65" style="edgeStyle=orthogonalEdgeStyle;rounded=0;orthogonalLoop=1;jettySize=auto;html=1;exitX=0.5;exitY=1;exitDx=0;exitDy=0;entryX=1;entryY=0.5;entryDx=0;entryDy=0;" parent="1" source="r2xh9OsiHyZNfZ7-bNdu-42" target="r2xh9OsiHyZNfZ7-bNdu-44" edge="1">
          <mxGeometry relative="1" as="geometry" />
        </mxCell>
        <mxCell id="r2xh9OsiHyZNfZ7-bNdu-71" style="edgeStyle=orthogonalEdgeStyle;rounded=0;orthogonalLoop=1;jettySize=auto;html=1;exitX=1;exitY=0.5;exitDx=0;exitDy=0;" parent="1" source="r2xh9OsiHyZNfZ7-bNdu-42" edge="1">
          <mxGeometry relative="1" as="geometry">
            <mxPoint x="727.5" y="532" as="targetPoint" />
            <Array as="points">
              <mxPoint x="806.5" y="567" />
              <mxPoint x="806.5" y="502" />
              <mxPoint x="728.5" y="502" />
            </Array>
          </mxGeometry>
        </mxCell>
        <mxCell id="r2xh9OsiHyZNfZ7-bNdu-42" value="重试" style="rounded=0;whiteSpace=wrap;html=1;" parent="1" vertex="1">
          <mxGeometry x="666.5" y="537" width="120" height="60" as="geometry" />
        </mxCell>
        <mxCell id="r2xh9OsiHyZNfZ7-bNdu-43" value="失败" style="text;strokeColor=none;align=center;fillColor=none;html=1;verticalAlign=middle;whiteSpace=wrap;rounded=0;" parent="1" vertex="1">
          <mxGeometry x="606.5" y="537" width="60" height="30" as="geometry" />
        </mxCell>
        <mxCell id="r2xh9OsiHyZNfZ7-bNdu-87" style="edgeStyle=orthogonalEdgeStyle;rounded=0;orthogonalLoop=1;jettySize=auto;html=1;exitX=0.5;exitY=1;exitDx=0;exitDy=0;entryX=0.5;entryY=0;entryDx=0;entryDy=0;" parent="1" source="r2xh9OsiHyZNfZ7-bNdu-44" target="r2xh9OsiHyZNfZ7-bNdu-85" edge="1">
          <mxGeometry relative="1" as="geometry" />
        </mxCell>
        <mxCell id="r2xh9OsiHyZNfZ7-bNdu-44" value="DELETED" style="rounded=0;whiteSpace=wrap;html=1;" parent="1" vertex="1">
          <mxGeometry x="496.5" y="647" width="120" height="60" as="geometry" />
        </mxCell>
        <mxCell id="r2xh9OsiHyZNfZ7-bNdu-45" value="成功" style="text;strokeColor=none;align=center;fillColor=none;html=1;verticalAlign=middle;whiteSpace=wrap;rounded=0;" parent="1" vertex="1">
          <mxGeometry x="566.5" y="607" width="60" height="30" as="geometry" />
        </mxCell>
        <mxCell id="r2xh9OsiHyZNfZ7-bNdu-46" value="删除" style="text;html=1;align=center;verticalAlign=middle;resizable=0;points=[];autosize=1;strokeColor=none;fillColor=none;" parent="1" vertex="1">
          <mxGeometry x="421.5" y="437" width="50" height="30" as="geometry" />
        </mxCell>
        <mxCell id="r2xh9OsiHyZNfZ7-bNdu-48" style="edgeStyle=orthogonalEdgeStyle;rounded=0;orthogonalLoop=1;jettySize=auto;html=1;exitX=0.5;exitY=1;exitDx=0;exitDy=0;entryX=0.5;entryY=0;entryDx=0;entryDy=0;" parent="1" source="r2xh9OsiHyZNfZ7-bNdu-49" target="r2xh9OsiHyZNfZ7-bNdu-52" edge="1">
          <mxGeometry relative="1" as="geometry" />
        </mxCell>
        <mxCell id="r2xh9OsiHyZNfZ7-bNdu-49" value="开始" style="ellipse;whiteSpace=wrap;html=1;" parent="1" vertex="1">
          <mxGeometry x="99.5" y="813" width="120" height="50" as="geometry" />
        </mxCell>
        <mxCell id="r2xh9OsiHyZNfZ7-bNdu-50" style="edgeStyle=orthogonalEdgeStyle;rounded=0;orthogonalLoop=1;jettySize=auto;html=1;exitX=1;exitY=0.5;exitDx=0;exitDy=0;entryX=0;entryY=0.5;entryDx=0;entryDy=0;" parent="1" source="r2xh9OsiHyZNfZ7-bNdu-52" target="r2xh9OsiHyZNfZ7-bNdu-54" edge="1">
          <mxGeometry relative="1" as="geometry" />
        </mxCell>
        <mxCell id="r2xh9OsiHyZNfZ7-bNdu-51" style="edgeStyle=orthogonalEdgeStyle;rounded=0;orthogonalLoop=1;jettySize=auto;html=1;exitX=0.5;exitY=1;exitDx=0;exitDy=0;entryX=0.5;entryY=0;entryDx=0;entryDy=0;" parent="1" source="r2xh9OsiHyZNfZ7-bNdu-52" target="r2xh9OsiHyZNfZ7-bNdu-56" edge="1">
          <mxGeometry relative="1" as="geometry" />
        </mxCell>
        <mxCell id="r2xh9OsiHyZNfZ7-bNdu-52" value="RECOVER_PENDING" style="rounded=0;whiteSpace=wrap;html=1;" parent="1" vertex="1">
          <mxGeometry x="93.25" y="913" width="132.5" height="60" as="geometry" />
        </mxCell>
        <mxCell id="r2xh9OsiHyZNfZ7-bNdu-53" value="恢复" style="text;strokeColor=none;align=center;fillColor=none;html=1;verticalAlign=middle;whiteSpace=wrap;rounded=0;" parent="1" vertex="1">
          <mxGeometry x="169.5" y="873" width="60" height="30" as="geometry" />
        </mxCell>
        <mxCell id="r2xh9OsiHyZNfZ7-bNdu-67" style="edgeStyle=orthogonalEdgeStyle;rounded=0;orthogonalLoop=1;jettySize=auto;html=1;exitX=0.5;exitY=1;exitDx=0;exitDy=0;entryX=1;entryY=0.5;entryDx=0;entryDy=0;" parent="1" source="r2xh9OsiHyZNfZ7-bNdu-54" target="r2xh9OsiHyZNfZ7-bNdu-56" edge="1">
          <mxGeometry relative="1" as="geometry" />
        </mxCell>
        <mxCell id="r2xh9OsiHyZNfZ7-bNdu-77" style="edgeStyle=orthogonalEdgeStyle;rounded=0;orthogonalLoop=1;jettySize=auto;html=1;exitX=1;exitY=0.5;exitDx=0;exitDy=0;entryX=0.5;entryY=0;entryDx=0;entryDy=0;" parent="1" source="r2xh9OsiHyZNfZ7-bNdu-54" target="r2xh9OsiHyZNfZ7-bNdu-54" edge="1">
          <mxGeometry relative="1" as="geometry">
            <mxPoint x="337" y="903" as="targetPoint" />
            <Array as="points">
              <mxPoint x="417" y="943" />
              <mxPoint x="417" y="873" />
              <mxPoint x="338" y="873" />
            </Array>
          </mxGeometry>
        </mxCell>
        <mxCell id="r2xh9OsiHyZNfZ7-bNdu-54" value="重试" style="rounded=0;whiteSpace=wrap;html=1;" parent="1" vertex="1">
          <mxGeometry x="277" y="913" width="120" height="60" as="geometry" />
        </mxCell>
        <mxCell id="r2xh9OsiHyZNfZ7-bNdu-55" value="失败" style="text;strokeColor=none;align=center;fillColor=none;html=1;verticalAlign=middle;whiteSpace=wrap;rounded=0;" parent="1" vertex="1">
          <mxGeometry x="217" y="913" width="60" height="30" as="geometry" />
        </mxCell>
        <mxCell id="r2xh9OsiHyZNfZ7-bNdu-89" style="edgeStyle=orthogonalEdgeStyle;rounded=0;orthogonalLoop=1;jettySize=auto;html=1;exitX=0.5;exitY=1;exitDx=0;exitDy=0;entryX=0.5;entryY=0;entryDx=0;entryDy=0;" parent="1" source="r2xh9OsiHyZNfZ7-bNdu-56" target="r2xh9OsiHyZNfZ7-bNdu-88" edge="1">
          <mxGeometry relative="1" as="geometry" />
        </mxCell>
        <mxCell id="r2xh9OsiHyZNfZ7-bNdu-56" value="NORMAL" style="rounded=0;whiteSpace=wrap;html=1;" parent="1" vertex="1">
          <mxGeometry x="99.5" y="1023" width="120" height="60" as="geometry" />
        </mxCell>
        <mxCell id="r2xh9OsiHyZNfZ7-bNdu-57" value="成功" style="text;strokeColor=none;align=center;fillColor=none;html=1;verticalAlign=middle;whiteSpace=wrap;rounded=0;" parent="1" vertex="1">
          <mxGeometry x="169.5" y="983" width="60" height="30" as="geometry" />
        </mxCell>
        <mxCell id="r2xh9OsiHyZNfZ7-bNdu-58" value="恢复" style="text;html=1;align=center;verticalAlign=middle;resizable=0;points=[];autosize=1;strokeColor=none;fillColor=none;" parent="1" vertex="1">
          <mxGeometry x="24.5" y="813" width="50" height="30" as="geometry" />
        </mxCell>
        <mxCell id="r2xh9OsiHyZNfZ7-bNdu-60" value="成功" style="text;strokeColor=none;align=center;fillColor=none;html=1;verticalAlign=middle;whiteSpace=wrap;rounded=0;" parent="1" vertex="1">
          <mxGeometry x="630" y="260" width="60" height="30" as="geometry" />
        </mxCell>
        <mxCell id="r2xh9OsiHyZNfZ7-bNdu-64" value="成功" style="text;strokeColor=none;align=center;fillColor=none;html=1;verticalAlign=middle;whiteSpace=wrap;rounded=0;" parent="1" vertex="1">
          <mxGeometry x="247.5" y="637" width="60" height="30" as="geometry" />
        </mxCell>
        <mxCell id="r2xh9OsiHyZNfZ7-bNdu-66" value="成功" style="text;strokeColor=none;align=center;fillColor=none;html=1;verticalAlign=middle;whiteSpace=wrap;rounded=0;" parent="1" vertex="1">
          <mxGeometry x="637.5" y="637" width="60" height="30" as="geometry" />
        </mxCell>
        <mxCell id="r2xh9OsiHyZNfZ7-bNdu-68" value="成功" style="text;strokeColor=none;align=center;fillColor=none;html=1;verticalAlign=middle;whiteSpace=wrap;rounded=0;" parent="1" vertex="1">
          <mxGeometry x="247" y="1013" width="60" height="30" as="geometry" />
        </mxCell>
        <mxCell id="r2xh9OsiHyZNfZ7-bNdu-70" value="失败" style="text;strokeColor=none;align=center;fillColor=none;html=1;verticalAlign=middle;whiteSpace=wrap;rounded=0;" parent="1" vertex="1">
          <mxGeometry x="730" y="90" width="60" height="30" as="geometry" />
        </mxCell>
        <mxCell id="r2xh9OsiHyZNfZ7-bNdu-72" value="失败" style="text;strokeColor=none;align=center;fillColor=none;html=1;verticalAlign=middle;whiteSpace=wrap;rounded=0;" parent="1" vertex="1">
          <mxGeometry x="737.5" y="467" width="60" height="30" as="geometry" />
        </mxCell>
        <mxCell id="r2xh9OsiHyZNfZ7-bNdu-76" value="失败" style="text;strokeColor=none;align=center;fillColor=none;html=1;verticalAlign=middle;whiteSpace=wrap;rounded=0;" parent="1" vertex="1">
          <mxGeometry x="347.5" y="472" width="60" height="30" as="geometry" />
        </mxCell>
        <mxCell id="r2xh9OsiHyZNfZ7-bNdu-78" value="失败" style="text;strokeColor=none;align=center;fillColor=none;html=1;verticalAlign=middle;whiteSpace=wrap;rounded=0;" parent="1" vertex="1">
          <mxGeometry x="347" y="833" width="60" height="30" as="geometry" />
        </mxCell>
        <mxCell id="r2xh9OsiHyZNfZ7-bNdu-79" value="结束" style="ellipse;whiteSpace=wrap;html=1;" parent="1" vertex="1">
          <mxGeometry x="100" y="360" width="120" height="50" as="geometry" />
        </mxCell>
        <mxCell id="r2xh9OsiHyZNfZ7-bNdu-80" value="结束" style="ellipse;whiteSpace=wrap;html=1;" parent="1" vertex="1">
          <mxGeometry x="489" y="360" width="120" height="50" as="geometry" />
        </mxCell>
        <mxCell id="r2xh9OsiHyZNfZ7-bNdu-84" value="结束" style="ellipse;whiteSpace=wrap;html=1;" parent="1" vertex="1">
          <mxGeometry x="100" y="740" width="120" height="50" as="geometry" />
        </mxCell>
        <mxCell id="r2xh9OsiHyZNfZ7-bNdu-85" value="结束" style="ellipse;whiteSpace=wrap;html=1;" parent="1" vertex="1">
          <mxGeometry x="496.5" y="740" width="120" height="50" as="geometry" />
        </mxCell>
        <mxCell id="r2xh9OsiHyZNfZ7-bNdu-88" value="结束" style="ellipse;whiteSpace=wrap;html=1;" parent="1" vertex="1">
          <mxGeometry x="97" y="1112" width="120" height="50" as="geometry" />
        </mxCell>
      </root>
    </mxGraphModel>
  </diagram>
</mxfile>
